<svg width="24" height="24" viewBox="0 0 24 24" fill="none" xmlns="http://www.w3.org/2000/svg">
<path d="M3.41421 0.585786C2.63316 -0.195262 1.36684 -0.195262 0.585786 0.585786C-0.195262 1.36684 -0.195262 2.63316 0.585786 3.41421L3.41421 0.585786ZM21.0632 23.0632C22.1677 23.0632 23.0632 22.1677 23.0632 21.0632L23.0632 3.06317C23.0632 1.9586 22.1677 1.06317 21.0632 1.06317C19.9586 1.06317 19.0632 1.9586 19.0632 3.06317L19.0632 19.0632L3.06317 19.0632C1.9586 19.0632 1.06317 19.9586 1.06317 21.0632C1.06317 22.1677 1.9586 23.0632 3.06317 23.0632L21.0632 23.0632ZM0.585786 3.41421L19.649 22.4774L22.4774 19.649L3.41421 0.585786L0.585786 3.41421Z" fill="white"/>
</svg>
