<svg width="106" height="38" viewBox="0 0 106 38" fill="none" xmlns="http://www.w3.org/2000/svg">
<path d="M3.025 15.5001C1.64436 15.4863 0.513932 16.5944 0.500125 17.975C0.486319 19.3556 1.59436 20.4861 2.975 20.4999L3.025 15.5001ZM104.75 20.7854C105.736 19.8189 105.752 18.236 104.785 17.25L89.0353 1.1818C88.0688 0.195776 86.486 0.179947 85.5 1.14645C84.514 2.11295 84.4981 3.69578 85.4646 4.6818L99.4646 18.9646L85.1818 32.9647C84.1958 33.9312 84.1799 35.514 85.1464 36.5C86.1129 37.486 87.6958 37.5019 88.6818 36.5354L104.75 20.7854ZM2.975 20.4999L102.975 21.4999L103.025 16.5001L3.025 15.5001L2.975 20.4999Z" fill="#FFA800"/>
</svg>
