<svg width="129" height="129" viewBox="0 0 129 129" fill="none" xmlns="http://www.w3.org/2000/svg">
<circle cx="64.5" cy="64.5" r="64.5" fill="#FFA800"/>
<path d="M46.388 81.6703C45.1013 83.1129 45.2278 85.3254 46.6703 86.612C48.1129 87.8987 50.3254 87.7722 51.612 86.3297L46.388 81.6703ZM85.4943 46.8003C85.384 44.8705 83.7302 43.3954 81.8003 43.5057L50.3516 45.3028C48.4218 45.413 46.9467 47.0669 47.057 48.9967C47.1673 50.9266 48.8211 52.4016 50.751 52.2914L78.7054 50.694L80.3028 78.6484C80.413 80.5782 82.0669 82.0533 83.9967 81.943C85.9266 81.8327 87.4016 80.1789 87.2914 78.249L85.4943 46.8003ZM51.612 86.3297L84.612 49.3297L79.388 44.6704L46.388 81.6703L51.612 86.3297Z" fill="white"/>
</svg>
