<svg width="49" height="49" viewBox="0 0 49 49" fill="none" xmlns="http://www.w3.org/2000/svg">
<rect width="48.2843" height="48.2843" rx="10" fill="white"/>
<path d="M8.58579 36.8701C7.80474 37.6511 7.80474 38.9175 8.58579 39.6985C9.36684 40.4796 10.6332 40.4796 11.4142 39.6985L8.58579 36.8701ZM40.2843 10C40.2843 8.89546 39.3888 8.00003 38.2843 8.00003L20.2843 8.00003C19.1797 8.00003 18.2843 8.89546 18.2843 10C18.2843 11.1046 19.1797 12 20.2843 12L36.2843 12L36.2843 28C36.2843 29.1046 37.1797 30 38.2843 30C39.3888 30 40.2843 29.1046 40.2843 28L40.2843 10ZM11.4142 39.6985L39.6985 11.4142L36.8701 8.58582L8.58579 36.8701L11.4142 39.6985Z" fill="black"/>
</svg>
