<svg width="49" height="49" viewBox="0 0 49 49" fill="none" xmlns="http://www.w3.org/2000/svg">
<rect y="48.2842" width="48.2843" height="48.2843" rx="10" transform="rotate(-90 0 48.2842)" fill="white"/>
<path d="M36.87 39.6984C37.651 40.4794 38.9173 40.4794 39.6984 39.6984C40.4794 38.9173 40.4794 37.651 39.6984 36.87L36.87 39.6984ZM9.99991 7.99992C8.89535 7.99992 7.99992 8.89535 7.99992 9.99991L7.99992 27.9999C7.99992 29.1045 8.89535 29.9999 9.99992 29.9999C11.1045 29.9999 11.9999 29.1045 11.9999 27.9999L11.9999 11.9999L27.9999 11.9999C29.1045 11.9999 29.9999 11.1045 29.9999 9.99992C29.9999 8.89535 29.1045 7.99992 27.9999 7.99992L9.99991 7.99992ZM39.6984 36.87L11.4141 8.5857L8.5857 11.4141L36.87 39.6984L39.6984 36.87Z" fill="black"/>
</svg>
