<svg width="276" height="58" viewBox="0 0 276 58" fill="none" xmlns="http://www.w3.org/2000/svg">
<path d="M96.9397 0.888214C94.0275 2.34427 92.7395 4.41635 92.7395 7.66447C92.7395 11.9206 95.1476 14.7207 99.2917 15.3928C101.924 15.7848 103.716 15.2807 105.788 13.5447C108.14 11.5846 107.972 11.0246 105.06 11.4166C102.876 11.7526 102.372 11.5846 101.14 10.3526C100.188 9.40053 99.8518 8.5605 100.076 7.77647C100.356 6.65643 100.636 6.54443 103.436 6.93644C108.476 7.55246 108.364 7.55246 108.196 6.04041C107.692 1.22423 101.644 -1.51988 96.9397 0.888214Z" fill="#9A9A9A"/>
<path d="M15.6246 1.28035C6.27223 3.85645 1.12004 10.2967 1.84807 18.473C2.24008 23.1212 4.20016 26.5933 7.50428 28.8894C10.8644 31.1295 14.1685 32.0815 22.0088 33.2015C29.3451 34.2096 31.5292 35.1056 33.0412 37.5137C34.5533 39.8658 34.1613 42.2179 31.9212 44.234C27.161 48.6021 15.5686 47.3701 9.24034 41.7699L6.66425 39.4738L3.30412 42.7779C1.51206 44.57 0 46.474 0 46.9781C0 48.3781 5.54421 53.2503 8.96033 54.8743C18.0327 59.0745 30.2411 58.6825 38.3614 53.9223C46.3137 49.2741 48.2738 37.3457 42.2816 30.2334C38.9214 26.2013 34.2733 24.3532 24.6969 23.0652C21.1688 22.6171 17.5847 21.8331 16.7446 21.3851C14.3365 20.1531 13.2725 18.193 13.6645 15.8409C14.7285 10.4087 25.1449 9.00864 32.9292 13.3768L35.8973 15.0569L39.5375 11.8647L43.1776 8.67263L41.3855 6.82456C39.0894 4.47247 34.1053 1.84037 30.3531 1.05634C26.489 0.272312 18.8727 0.328316 15.6246 1.28035Z" fill="#9A9A9A"/>
<path d="M52.474 2.51234C52.25 2.68034 52.082 14.7768 52.082 29.3933V55.8823H57.6822H63.2824V51.9622C63.2824 49.7781 63.3945 48.042 63.5625 48.042C63.6745 48.042 66.5866 49.7781 70.0027 51.9622L76.2189 55.8823H81.9311L87.6434 55.8263L89.3234 52.1302C90.2755 50.1141 91.0595 48.266 91.1715 48.042C91.2835 47.818 88.0354 45.7459 84.0592 43.5059C80.0271 41.2098 76.7229 39.1377 76.7229 38.9137C76.7229 38.6897 80.1951 38.6337 84.4512 38.8017C93.5796 39.2497 99.0678 40.5938 100.524 42.8338C101.42 44.1779 101.364 44.4019 99.1798 49.5541C97.8917 52.4662 96.8837 55.0983 96.8837 55.3783C96.8837 56.2183 103.996 55.9383 106.404 54.9863C109.764 53.6422 110.324 52.1302 110.324 44.1219V37.4016H91.8995C76.6669 37.4016 73.1948 37.5696 71.9068 38.2417C70.4507 38.9697 70.2827 38.9697 70.1147 38.1857C70.0027 37.7376 69.2747 37.1216 68.4906 36.7856C67.3146 36.3376 67.2026 36.1136 67.7626 35.4416C68.1546 34.9935 68.8267 34.6015 69.2187 34.6015C69.6667 34.6015 70.0027 34.2095 70.0027 33.7615C70.0027 32.5855 70.9547 32.6975 72.0748 34.0415C73.0828 35.1616 76.3869 35.6096 77.563 34.7135C77.899 34.4895 80.3631 30.7374 82.9952 26.3132L87.8674 18.3609H81.2031H74.4829L69.3307 25.3612C66.4746 29.1693 63.9545 32.3054 63.7305 32.3614C63.4505 32.3614 63.2824 25.5292 63.2824 17.2409V2.12032H58.0743C55.1621 2.12032 52.6421 2.28833 52.474 2.51234Z" fill="#9A9A9A"/>
<path d="M92.2353 18.3052L88.9312 18.6412L93.2433 20.2653C97.7795 22.0013 97.7795 22.0013 102.148 29.1136C102.988 30.5696 103.324 30.6816 106.74 30.6816H110.38L110.212 24.3534L110.044 18.0812L102.764 18.0252C98.7875 18.0252 94.0273 18.1372 92.2353 18.3052Z" fill="#9A9A9A"/>
<path d="M92.9635 32.3616C92.5715 33.5936 92.3475 34.7137 92.4595 34.8817C92.6275 34.9937 94.1956 34.9377 95.9876 34.7697L99.2357 34.4337L97.9477 33.3696C97.2197 32.8096 95.9316 31.8576 95.1476 31.2415L93.6915 30.1775L92.9635 32.3616Z" fill="#9A9A9A"/>
<path d="M139.771 56.9615C134.061 56.9615 129.233 55.7862 125.287 53.4357C121.388 51.0851 118.417 47.7944 116.374 43.5634C114.378 39.3324 113.38 34.3963 113.38 28.755C113.38 22.9047 114.471 17.838 116.653 13.5548C118.881 9.21935 122.061 5.87636 126.192 3.52582C130.324 1.17527 135.291 0 141.094 0C144.668 0 147.825 0.470109 150.564 1.41033C153.349 2.35054 155.74 3.70864 157.736 5.4846L153.767 16.5322C152.328 15.4352 150.958 14.5995 149.659 14.0249C148.405 13.3981 147.105 12.9541 145.759 12.6929C144.459 12.4318 142.951 12.3012 141.233 12.3012C136.405 12.3012 132.784 13.7115 130.37 16.5322C128.003 19.3006 126.819 23.3748 126.819 28.755C126.819 34.0829 127.91 38.1049 130.092 40.8211C132.274 43.5373 135.732 44.8954 140.467 44.8954C141.906 44.8954 143.461 44.7387 145.132 44.4253C146.85 44.1119 148.591 43.6418 150.355 43.0149L148.057 48.1861V35.0231H137.891V24.9941H158.572V52.6522C155.925 54.0625 152.955 55.1333 149.659 55.8646C146.409 56.5959 143.113 56.9615 139.771 56.9615Z" fill="#9A9A9A"/>
<path d="M184.893 56.9615C178.486 56.9615 173.496 55.1072 169.922 51.3985C166.394 47.6899 164.63 42.5971 164.63 36.12C164.63 32.098 165.372 28.5199 166.858 25.3859C168.343 22.2518 170.432 19.8229 173.125 18.0992C175.817 16.3232 178.974 15.4352 182.595 15.4352C186.169 15.4352 189.14 16.3232 191.508 18.0992C193.922 19.8229 195.732 22.2257 196.939 25.3075C198.146 28.3371 198.749 31.8629 198.749 35.885V38.8623H175.005V32.2808H189.628L188.444 33.3777C188.444 30.4004 187.933 28.2065 186.912 26.7962C185.937 25.3336 184.544 24.6024 182.734 24.6024C180.645 24.6024 179.043 25.4903 177.929 27.2663C176.862 28.99 176.328 31.6017 176.328 35.1014V36.5118C176.328 40.0115 177.094 42.5709 178.626 44.1902C180.158 45.8095 182.363 46.6191 185.241 46.6191C187.098 46.6191 188.838 46.3841 190.463 45.9139C192.134 45.4438 193.713 44.6864 195.198 43.6418L198.401 52.7305C196.637 54.0886 194.595 55.1333 192.274 55.8646C189.952 56.5959 187.492 56.9615 184.893 56.9615Z" fill="#9A9A9A"/>
<path d="M218.578 56.9615C215.514 56.9615 212.821 56.1519 210.5 54.5326C208.179 52.8611 206.346 50.4583 204.999 47.3243C203.7 44.1902 203.05 40.4816 203.05 36.1984C203.05 31.8629 203.7 28.1543 204.999 25.0725C206.346 21.9384 208.179 19.5617 210.5 17.9425C212.821 16.271 215.514 15.4352 218.578 15.4352C221.317 15.4352 223.777 16.1665 225.959 17.6291C228.187 19.0916 229.649 20.9982 230.346 23.3487H229.649L230.415 16.2971H242.322C242.183 18.0731 242.044 19.8751 241.905 21.7033C241.812 23.5315 241.765 25.3336 241.765 27.1096V56.0996H229.51L229.371 49.3614H230.206C229.51 51.6597 228.048 53.514 225.819 54.9244C223.638 56.2824 221.224 56.9615 218.578 56.9615ZM222.547 46.6191C224.636 46.6191 226.33 45.8095 227.63 44.1902C228.93 42.5187 229.58 39.8548 229.58 36.1984C229.58 32.542 228.93 29.9041 227.63 28.2849C226.33 26.6134 224.636 25.7776 222.547 25.7776C220.458 25.7776 218.763 26.6134 217.464 28.2849C216.164 29.9041 215.514 32.542 215.514 36.1984C215.514 39.8548 216.141 42.5187 217.394 44.1902C218.694 45.8095 220.411 46.6191 222.547 46.6191Z" fill="#9A9A9A"/>
<path d="M249.463 56.0996V27.188C249.463 25.3597 249.417 23.5315 249.324 21.7033C249.231 19.8751 249.092 18.0731 248.906 16.2971H260.883L262.206 28.5199H260.326C260.79 25.5426 261.533 23.0876 262.554 21.1549C263.576 19.2222 264.852 17.7858 266.384 16.8456C267.916 15.9053 269.726 15.4352 271.815 15.4352C272.79 15.4352 273.51 15.4875 273.974 15.5919C274.485 15.6442 275.019 15.8009 275.576 16.062V28.2849C274.415 27.7103 273.487 27.3447 272.79 27.188C272.094 27.0312 271.189 26.9529 270.075 26.9529C268.171 26.9529 266.616 27.3447 265.409 28.1282C264.202 28.8594 263.32 30.0086 262.763 31.5756C262.253 33.1427 261.997 35.1537 261.997 37.6087V56.0996H249.463Z" fill="#9A9A9A"/>
</svg>
