<svg width="277" height="58" viewBox="0 0 277 58" fill="none" xmlns="http://www.w3.org/2000/svg">
<path d="M97.7285 0.888252C94.8164 2.34431 93.5283 4.41638 93.5283 7.6645C93.5283 11.9207 95.9364 14.7208 100.081 15.3928C102.713 15.7848 104.505 15.2808 106.577 13.5447C108.929 11.5847 108.761 11.0246 105.849 11.4166C103.665 11.7527 103.161 11.5846 101.929 10.3526C100.977 9.40057 100.641 8.56054 100.865 7.77651C101.145 6.65647 101.425 6.54446 104.225 6.93648C109.265 7.5525 109.153 7.5525 108.985 6.04044C108.481 1.22427 102.433 -1.51984 97.7285 0.888252Z" fill="#FFA800"/>
<path d="M16.4134 1.28028C7.06105 3.85638 1.90886 10.2966 2.63689 18.4729C3.0289 23.1211 4.98897 26.5932 8.2931 28.8893C11.6532 31.1294 14.9573 32.0814 22.7976 33.2015C30.1339 34.2095 32.318 35.1055 33.83 37.5136C35.3421 39.8657 34.9501 42.2178 32.71 44.2339C27.9498 48.602 16.3574 47.37 10.0292 41.7698L7.45306 39.4737L4.09294 42.7778C2.30087 44.5699 0.788818 46.474 0.788818 46.978C0.788818 48.378 6.33302 53.2502 9.74915 54.8743C18.8215 59.0744 31.0299 58.6824 39.1502 53.9222C47.1025 49.2741 49.0626 37.3456 43.0704 30.2334C39.7103 26.2012 35.0621 24.3531 25.4857 23.0651C21.9576 22.6171 18.3735 21.833 17.5334 21.385C15.1253 20.153 14.0613 18.1929 14.4533 15.8408C15.5174 10.4086 25.9337 9.00857 33.718 13.3767L36.6861 15.0568L40.3263 11.8647L43.9664 8.67256L42.1744 6.82449C39.8783 4.4724 34.8941 1.8403 31.1419 1.05627C27.2778 0.272243 19.6615 0.328247 16.4134 1.28028Z" fill="#FFA800"/>
<path d="M53.2629 2.5123C53.0389 2.68031 52.8708 14.7768 52.8708 29.3933V55.8823H58.4711H64.0713V51.9621C64.0713 49.7781 64.1833 48.042 64.3513 48.042C64.4633 48.042 67.3754 49.7781 70.7915 51.9621L77.0077 55.8823H82.72L88.4322 55.8263L90.1122 52.1302C91.0643 50.1141 91.8483 48.266 91.9603 48.042C92.0723 47.818 88.8242 45.7459 84.848 43.5058C80.8159 41.2097 77.5118 39.1377 77.5118 38.9137C77.5118 38.6896 80.9839 38.6336 85.2401 38.8017C94.3684 39.2497 99.8566 40.5937 101.313 42.8338C102.209 44.1779 102.153 44.4019 99.9686 49.5541C98.6805 52.4662 97.6725 55.0983 97.6725 55.3783C97.6725 56.2183 104.785 55.9383 107.193 54.9863C110.553 53.6422 111.113 52.1302 111.113 44.1219V37.4016H92.6883C77.4558 37.4016 73.9836 37.5696 72.6956 38.2416C71.2395 38.9697 71.0715 38.9697 70.9035 38.1856C70.7915 37.7376 70.0635 37.1216 69.2795 36.7856C68.1034 36.3376 67.9914 36.1136 68.5514 35.4415C68.9434 34.9935 69.6155 34.6015 70.0075 34.6015C70.4555 34.6015 70.7915 34.2095 70.7915 33.7615C70.7915 32.5854 71.7436 32.6974 72.8636 34.0415C73.8716 35.1615 77.1758 35.6095 78.3518 34.7135C78.6878 34.4895 81.1519 30.7374 83.784 26.3132L88.6562 18.3609H81.9919H75.2717L70.1195 25.3612C67.2634 29.1693 64.7433 32.3054 64.5193 32.3614C64.2393 32.3614 64.0713 25.5292 64.0713 17.2409V2.12029H58.8631C55.951 2.12029 53.4309 2.2883 53.2629 2.5123Z" fill="#FFA800"/>
<path d="M93.0241 18.3049L89.72 18.641L94.0321 20.265C98.5683 22.0011 98.5683 22.0011 102.936 29.1133C103.776 30.5694 104.113 30.6814 107.529 30.6814H111.169L111.001 24.3532L110.833 18.0809L103.552 18.0249C99.5763 18.0249 94.8162 18.1369 93.0241 18.3049Z" fill="#FFA800"/>
<path d="M93.7523 32.3615C93.3603 33.5935 93.1363 34.7135 93.2483 34.8815C93.4163 34.9936 94.9844 34.9376 96.7764 34.7695L100.025 34.4335L98.7365 33.3695C98.0085 32.8095 96.7204 31.8574 95.9364 31.2414L94.4804 30.1774L93.7523 32.3615Z" fill="#FFA800"/>
<path d="M140.56 56.9615C134.85 56.9615 130.022 55.7862 126.076 53.4357C122.177 51.0851 119.206 47.7944 117.163 43.5634C115.167 39.3324 114.169 34.3963 114.169 28.755C114.169 22.9047 115.26 17.838 117.442 13.5548C119.67 9.21935 122.85 5.87636 126.981 3.52582C131.113 1.17527 136.08 0 141.883 0C145.457 0 148.614 0.470109 151.353 1.41033C154.138 2.35054 156.529 3.70864 158.525 5.4846L154.556 16.5322C153.117 15.4352 151.747 14.5995 150.447 14.0249C149.194 13.3981 147.894 12.9541 146.548 12.6929C145.248 12.4318 143.739 12.3012 142.022 12.3012C137.194 12.3012 133.573 13.7115 131.159 16.5322C128.792 19.3006 127.608 23.3748 127.608 28.755C127.608 34.0829 128.699 38.1049 130.881 40.8211C133.063 43.5373 136.521 44.8954 141.256 44.8954C142.695 44.8954 144.25 44.7387 145.921 44.4253C147.639 44.1119 149.38 43.6418 151.144 43.0149L148.846 48.1861V35.0231H138.68V24.9941H159.36V52.6522C156.714 54.0625 153.743 55.1333 150.447 55.8646C147.198 56.5959 143.902 56.9615 140.56 56.9615Z" fill="#FFA800"/>
<path d="M185.681 56.9615C179.275 56.9615 174.285 55.1072 170.71 51.3985C167.182 47.6899 165.418 42.5971 165.418 36.12C165.418 32.098 166.161 28.5199 167.647 25.3859C169.132 22.2518 171.221 19.8229 173.913 18.0992C176.606 16.3232 179.763 15.4352 183.383 15.4352C186.958 15.4352 189.929 16.3232 192.296 18.0992C194.71 19.8229 196.521 22.2257 197.728 25.3075C198.935 28.3371 199.538 31.8629 199.538 35.885V38.8623H175.794V32.2808H190.416L189.233 33.3777C189.233 30.4004 188.722 28.2065 187.701 26.7962C186.726 25.3336 185.333 24.6024 183.523 24.6024C181.434 24.6024 179.832 25.4903 178.718 27.2663C177.65 28.99 177.117 31.6017 177.117 35.1014V36.5118C177.117 40.0115 177.883 42.5709 179.414 44.1902C180.946 45.8095 183.151 46.6191 186.03 46.6191C187.886 46.6191 189.627 46.3841 191.252 45.9139C192.923 45.4438 194.501 44.6864 195.987 43.6418L199.19 52.7305C197.426 54.0886 195.383 55.1333 193.062 55.8646C190.741 56.5959 188.281 56.9615 185.681 56.9615Z" fill="#FFA800"/>
<path d="M219.367 56.9615C216.303 56.9615 213.61 56.1519 211.289 54.5326C208.968 52.8611 207.134 50.4583 205.788 47.3243C204.488 44.1902 203.839 40.4816 203.839 36.1984C203.839 31.8629 204.488 28.1543 205.788 25.0725C207.134 21.9384 208.968 19.5617 211.289 17.9425C213.61 16.271 216.303 15.4352 219.367 15.4352C222.105 15.4352 224.566 16.1665 226.748 17.6291C228.976 19.0916 230.438 20.9982 231.134 23.3487H230.438L231.204 16.2971H243.111C242.972 18.0731 242.833 19.8751 242.693 21.7033C242.601 23.5315 242.554 25.3336 242.554 27.1096V56.0996H230.299L230.16 49.3614H230.995C230.299 51.6597 228.837 53.514 226.608 54.9244C224.426 56.2824 222.013 56.9615 219.367 56.9615ZM223.336 46.6191C225.425 46.6191 227.119 45.8095 228.419 44.1902C229.719 42.5187 230.368 39.8548 230.368 36.1984C230.368 32.542 229.719 29.9041 228.419 28.2849C227.119 26.6134 225.425 25.7776 223.336 25.7776C221.247 25.7776 219.552 26.6134 218.252 28.2849C216.953 29.9041 216.303 32.542 216.303 36.1984C216.303 39.8548 216.929 42.5187 218.183 44.1902C219.483 45.8095 221.2 46.6191 223.336 46.6191Z" fill="#FFA800"/>
<path d="M250.252 56.0996V27.188C250.252 25.3597 250.206 23.5315 250.113 21.7033C250.02 19.8751 249.881 18.0731 249.695 16.2971H261.672L262.995 28.5199H261.115C261.579 25.5426 262.322 23.0876 263.343 21.1549C264.364 19.2222 265.641 17.7858 267.173 16.8456C268.705 15.9053 270.515 15.4352 272.604 15.4352C273.579 15.4352 274.299 15.4875 274.763 15.5919C275.273 15.6442 275.807 15.8009 276.364 16.062V28.2849C275.204 27.7103 274.275 27.3447 273.579 27.188C272.883 27.0312 271.978 26.9529 270.863 26.9529C268.96 26.9529 267.405 27.3447 266.198 28.1282C264.991 28.8594 264.109 30.0086 263.552 31.5756C263.041 33.1427 262.786 35.1537 262.786 37.6087V56.0996H250.252Z" fill="#FFA800"/>
</svg>
