<svg width="39" height="39" viewBox="0 0 39 39" fill="none" xmlns="http://www.w3.org/2000/svg">
<path d="M15.6791 9.48128e-08C18.6594 -0.00032757 21.5781 0.848637 24.0932 2.44744C26.6083 4.04624 28.6158 6.32867 29.8803 9.02734C31.1449 11.726 31.6143 14.7292 31.2334 17.685C30.8525 20.6408 29.6372 23.4269 27.7298 25.7168L38.5451 36.532C38.7327 36.7062 38.8699 36.9279 38.9422 37.1735C39.0144 37.4192 39.0191 37.6798 38.9556 37.9279C38.8922 38.176 38.763 38.4024 38.5817 38.5832C38.4004 38.764 38.1737 38.8926 37.9254 38.9554C37.6776 39.0189 37.4173 39.0145 37.1718 38.9426C36.9262 38.8707 36.7047 38.7339 36.5303 38.5468L25.715 27.7316C23.7798 29.343 21.4848 30.4646 19.0244 31.0015C16.564 31.5384 14.0105 31.4748 11.5799 30.8162C9.14922 30.1575 6.91295 28.9232 5.06023 27.2176C3.20751 25.5119 1.79283 23.3851 0.935867 21.0172C0.0789037 18.6492 -0.195138 16.1096 0.136923 13.6133C0.468985 11.117 1.39738 8.73743 2.84358 6.67581C4.28978 4.61418 6.21123 2.93119 8.44542 1.76918C10.6796 0.607169 13.1608 0.000332573 15.6791 9.48128e-08ZM2.84905 15.681C2.84905 17.3659 3.18091 19.0342 3.82568 20.5908C4.47045 22.1474 5.4155 23.5618 6.60688 24.7531C7.79826 25.9445 9.21263 26.8895 10.7692 27.5343C12.3259 28.1791 13.9942 28.5109 15.6791 28.5109C17.364 28.5109 19.0323 28.1791 20.5889 27.5343C22.1455 26.8895 23.5599 25.9445 24.7513 24.7531C25.9427 23.5618 26.8877 22.1474 27.5325 20.5908C28.1773 19.0342 28.5091 17.3659 28.5091 15.681C28.5091 12.2783 27.1574 9.01496 24.7513 6.60889C22.3452 4.20281 19.0818 2.85109 15.6791 2.85109C12.2764 2.85109 9.01298 4.20281 6.60688 6.60889C4.20078 9.01496 2.84905 12.2783 2.84905 15.681Z" fill="#1E80BB"/>
</svg>
