<svg width="56" height="44" viewBox="0 0 56 44" fill="none" xmlns="http://www.w3.org/2000/svg">
<path d="M0 13L2.41987 15.9038C3.02642 16.6317 3.72239 17.2801 4.49129 17.8337L4.68004 17.9696C6.39124 19.2017 8.67155 19.2971 10.4797 18.2122C11.8076 17.4154 12.9279 16.3153 13.7487 15.002L15 13V32L13.5569 29.6911C12.864 28.5824 11.897 27.6711 10.7493 27.0451L10.3959 26.8523C8.85055 26.0094 6.98279 26.0094 5.43744 26.8523C4.04722 27.6106 2.81275 28.6247 1.79897 29.8412L0 32V13Z" fill="#1E80BB"/>
<rect x="12" width="44" height="44" rx="22" fill="#1E80BB"/>
<path d="M40.3474 17.2121L38.5379 15.4044C38.4103 15.2762 38.2586 15.1744 38.0915 15.1051C37.9244 15.0357 37.7453 15 37.5644 15C37.1957 15 36.8491 15.1444 36.5892 15.4044L34.6421 17.3515C34.5139 17.4791 34.4122 17.6308 34.3428 17.7979C34.2734 17.965 34.2377 18.1441 34.2378 18.325C34.2378 18.6937 34.3822 19.0403 34.6421 19.3002L36.0659 20.724C35.7326 21.4586 35.2693 22.1269 34.6982 22.6966C34.1285 23.2691 33.4603 23.7341 32.7256 24.0694L31.3019 22.6456C31.1742 22.5174 31.0225 22.4157 30.8555 22.3463C30.6884 22.2769 30.5093 22.2412 30.3283 22.2413C29.9597 22.2413 29.6131 22.3857 29.3531 22.6456L27.4044 24.591C27.276 24.7189 27.1742 24.8709 27.1048 25.0383C27.0354 25.2056 26.9998 25.3851 27 25.5663C27 25.935 27.1444 26.2816 27.4044 26.5415L29.2104 28.3476C29.625 28.7638 30.1975 29 30.7854 29C30.9094 29 31.0283 28.9898 31.1456 28.9694C33.4358 28.5922 35.7074 27.374 37.5406 25.5425C39.3721 23.7126 40.5886 21.4427 40.9709 19.1456C41.0864 18.4439 40.8537 17.7218 40.3474 17.2121Z" fill="white"/>
</svg>
