<svg width="50" height="50" viewBox="0 0 50 50" fill="none" xmlns="http://www.w3.org/2000/svg">
<circle cx="25" cy="25" r="25" fill="white"/>
<path fill-rule="evenodd" clip-rule="evenodd" d="M31.583 13.171C31.8904 13.0196 32.2269 12.9674 32.5573 13.0198C32.8878 13.0722 33.2002 13.2273 33.4621 13.4691C33.724 13.7108 33.9257 14.0303 34.0463 14.3942C34.1669 14.7582 34.202 15.1533 34.1479 15.5385L31.3268 35.5691C31.0531 37.5013 29.2421 38.6093 27.7283 37.6469C26.4621 36.8417 24.5814 35.6012 22.8897 34.3068C22.0439 33.6588 19.4529 31.584 19.7714 30.1076C20.045 28.8452 24.3985 24.1015 26.8862 21.2811C27.8627 20.1731 27.4174 19.5339 26.2643 20.5531C23.4009 23.0837 18.8036 26.932 17.2837 28.0153C15.9428 28.9704 15.2437 29.1335 14.4079 28.9704C12.8829 28.6734 11.4686 28.2133 10.3143 27.6527C8.75453 26.8956 8.83041 24.3854 10.3131 23.6545L31.583 13.171Z" fill="#1E80BB"/>
</svg>
