<svg width="56" height="56" viewBox="0 0 56 56" fill="none" xmlns="http://www.w3.org/2000/svg">
<circle cx="28" cy="28" r="28" fill="white"/>
<path fill-rule="evenodd" clip-rule="evenodd" d="M39.358 12.7189C39.7514 12.5251 40.182 12.4582 40.6051 12.5253C41.0281 12.5924 41.428 12.791 41.7632 13.1004C42.0984 13.4098 42.3566 13.8187 42.511 14.2846C42.6653 14.7505 42.7102 15.2563 42.6409 15.7493L39.03 41.3885C38.6797 43.8617 36.3616 45.2799 34.4239 44.048C32.8031 43.0174 30.3958 41.4295 28.2305 39.7727C27.1479 38.9433 23.8314 36.2875 24.239 34.3977C24.5893 32.7819 30.1618 26.7099 33.346 23.0998C34.5959 21.6815 34.0259 20.8634 32.55 22.168C28.8849 25.4071 23.0003 30.3329 21.0548 31.7195C19.3384 32.9421 18.4436 33.1509 17.3737 32.9421C15.4218 32.5619 13.6115 31.973 12.134 31.2555C10.1375 30.2863 10.2346 27.0733 12.1324 26.1377L39.358 12.7189Z" fill="#9A9A9A"/>
</svg>
