<svg width="31" height="32" viewBox="0 0 31 32" fill="none" xmlns="http://www.w3.org/2000/svg">
<path d="M2.62836 10.1053H28.3694L26.8305 28.8421C26.7601 29.6973 26.2638 30.5 25.4427 31.0867C24.6216 31.6734 23.5374 32 22.4108 32H8.58921C7.46263 32 6.37842 31.6734 5.55731 31.0867C4.73619 30.5 4.23991 29.6973 4.1695 28.8421L2.62836 10.1053ZM31 5.05263V8.42105H0V5.05263H6.64286V3.36842C6.64286 2.47506 7.10944 1.61829 7.93996 0.986588C8.77047 0.354886 9.8969 0 11.0714 0H19.9286C21.1031 0 22.2295 0.354886 23.06 0.986588C23.8906 1.61829 24.3571 2.47506 24.3571 3.36842V5.05263H31ZM11.0714 5.05263H19.9286V3.36842H11.0714V5.05263Z" fill="#9A9A9A"/>
</svg>
