<svg width="44" height="49" viewBox="0 0 44 49" fill="none" xmlns="http://www.w3.org/2000/svg">
<circle cx="22" cy="24" r="21" stroke="#1E80BB" stroke-width="2"/>
<circle cx="22" cy="24" r="21" stroke="#1E80BB" stroke-width="2"/>
<circle cx="22" cy="24" r="21" stroke="#1E80BB" stroke-width="2"/>
<circle cx="22" cy="24" r="21" stroke="#1E80BB" stroke-width="2"/>
<circle cx="22" cy="24" r="21" stroke="#1E80BB" stroke-width="2"/>
<circle cx="22" cy="24" r="21" stroke="#1E80BB" stroke-width="2"/>
<path d="M29.5 18.5294C29.5 16.1736 28.66 14.0412 27.304 12.4991C25.9465 10.9553 24.0715 10 22 10C19.9285 10 18.0535 10.9553 16.696 12.4991C15.34 14.0412 14.5 16.1736 14.5 18.5294C14.5 20.8852 15.34 23.0176 16.696 24.5597C18.0535 26.1035 19.9285 27.0588 22 27.0588C24.0715 27.0588 25.9465 26.1035 27.304 24.5597C28.0013 23.7686 28.5542 22.8286 28.9311 21.7938C29.308 20.7589 29.5013 19.6495 29.5 18.5294ZM13 35.5882C13 37.2941 16.375 39 22 39C27.277 39 31 37.2941 31 35.5882C31 32.1765 27.469 28.7647 22 28.7647C16.375 28.7647 13 32.1765 13 35.5882Z" fill="#1E80BB"/>
</svg>
