<svg width="50" height="50" viewBox="0 0 50 50" fill="none" xmlns="http://www.w3.org/2000/svg">
<circle cx="25" cy="25" r="25" fill="white"/>
<path d="M39.8512 33.9985H36.3474C35.0224 33.9985 34.6232 32.9258 32.2479 30.5503C30.1721 28.5508 29.2954 28.3022 28.7702 28.3022C28.044 28.3022 27.8459 28.5017 27.8459 29.5007V32.6496C27.8459 33.5013 27.5696 34 25.3432 34C23.1834 33.855 21.0889 33.1992 19.2323 32.0866C17.3757 30.9741 15.8101 29.4366 14.6645 27.6009C11.9444 24.2172 10.0517 20.2458 9.13708 16.0026C9.13708 15.4778 9.33669 15.0021 10.3378 15.0021H13.8385C14.7382 15.0021 15.0622 15.4026 15.4153 16.3279C17.115 21.3276 20.0154 25.6765 21.193 25.6765C21.6445 25.6765 21.841 25.477 21.841 24.3522V19.2022C21.6921 16.8528 20.4438 16.6548 20.4438 15.8047C20.4596 15.5804 20.5622 15.3711 20.7299 15.2212C20.8976 15.0713 21.1172 14.9927 21.342 15.0021H26.8449C27.5972 15.0021 27.8459 15.3765 27.8459 16.2758V23.2274C27.8459 23.9778 28.1684 24.2264 28.3956 24.2264C28.847 24.2264 29.194 23.9778 30.0216 23.1522C31.7955 20.9899 33.2448 18.5809 34.3238 16.0011C34.4342 15.6913 34.643 15.4262 34.9183 15.2461C35.1936 15.066 35.5202 14.9809 35.8484 15.0036H39.3507C40.4009 15.0036 40.6235 15.5284 40.4009 16.2773C39.1271 19.1292 37.5509 21.8363 35.6995 24.3522C35.3218 24.9277 35.1713 25.2269 35.6995 25.9021C36.0465 26.4269 37.2748 27.452 38.0993 28.4265C39.3 29.6234 40.2965 31.0076 41.0504 32.5237C41.3513 33.4997 40.8508 33.9985 39.8512 33.9985Z" fill="#1E80BB"/>
</svg>
