<svg width="56" height="56" viewBox="0 0 56 56" fill="none" xmlns="http://www.w3.org/2000/svg">
<circle cx="28" cy="28" r="28" fill="white"/>
<path d="M45.1502 39.9982H41.0989C39.5669 39.9982 39.1053 38.7562 36.3589 36.0056C33.9587 33.6904 32.945 33.4025 32.3378 33.4025C31.4981 33.4025 31.2691 33.6335 31.2691 34.7902V38.4364C31.2691 39.4225 30.9495 40 28.3753 40C25.878 39.8321 23.4562 39.0727 21.3095 37.7845C19.1629 36.4963 17.3527 34.7161 16.0281 32.5905C12.8829 28.6725 10.6945 24.0741 9.63696 19.1609C9.63696 18.5532 9.86775 18.0024 11.0253 18.0024H15.073C16.1133 18.0024 16.4879 18.4662 16.8962 19.5376C18.8615 25.3266 22.215 30.3623 23.5767 30.3623C24.0986 30.3623 24.3258 30.1313 24.3258 28.8288V22.8657C24.1536 20.1453 22.7103 19.9161 22.7103 18.9317C22.7286 18.672 22.8473 18.4297 23.0412 18.2561C23.2351 18.0826 23.489 17.9916 23.7489 18.0024H30.1116C30.9815 18.0024 31.2691 18.436 31.2691 19.4772V27.5264C31.2691 28.3953 31.6419 28.6831 31.9046 28.6831C32.4266 28.6831 32.8278 28.3953 33.7847 27.4393C35.8358 24.9357 37.5115 22.1464 38.7591 19.1592C38.8868 18.8005 39.1282 18.4935 39.4465 18.285C39.7648 18.0764 40.1425 17.9778 40.522 18.0042H44.5714C45.7857 18.0042 46.0432 18.6119 45.7857 19.479C44.3129 22.7811 42.4905 25.9157 40.3498 28.8288C39.913 29.4952 39.7391 29.8417 40.3498 30.6235C40.751 31.2312 42.1712 32.4181 43.1246 33.5464C44.5129 34.9324 45.665 36.5351 46.5367 38.2907C46.8847 39.4207 46.3059 39.9982 45.1502 39.9982Z" fill="#9A9A9A"/>
</svg>
