<svg width="50" height="50" viewBox="0 0 50 50" fill="none" xmlns="http://www.w3.org/2000/svg">
<circle cx="25" cy="25" r="25" fill="white"/>
<path d="M21.6726 29L29.4576 24.5L21.6726 20V29ZM39.0126 17.255C39.2076 17.96 39.3426 18.905 39.4326 20.105C39.5376 21.305 39.5826 22.34 39.5826 23.24L39.6726 24.5C39.6726 27.785 39.4326 30.2 39.0126 31.745C38.6376 33.095 37.7676 33.965 36.4176 34.34C35.7126 34.535 34.4226 34.67 32.4426 34.76C30.4926 34.865 28.7076 34.91 27.0576 34.91L24.6726 35C18.3876 35 14.4726 34.76 12.9276 34.34C11.5776 33.965 10.7076 33.095 10.3326 31.745C10.1376 31.04 10.0026 30.095 9.91261 28.895C9.80761 27.695 9.76261 26.66 9.76261 25.76L9.67261 24.5C9.67261 21.215 9.91261 18.8 10.3326 17.255C10.7076 15.905 11.5776 15.035 12.9276 14.66C13.6326 14.465 14.9226 14.33 16.9026 14.24C18.8526 14.135 20.6376 14.09 22.2876 14.09L24.6726 14C30.9576 14 34.8726 14.24 36.4176 14.66C37.7676 15.035 38.6376 15.905 39.0126 17.255Z" fill="#1E80BB"/>
</svg>
