<svg width="56" height="56" viewBox="0 0 56 56" fill="none" xmlns="http://www.w3.org/2000/svg">
<circle cx="28" cy="28" r="28" fill="white"/>
<path d="M23.7726 33.2857L33.8931 27.5L23.7726 21.7143V33.2857ZM46.3146 18.185C46.5681 19.0914 46.7436 20.3064 46.8606 21.8493C46.9971 23.3921 47.0556 24.7229 47.0556 25.88L47.1726 27.5C47.1726 31.7236 46.8606 34.8286 46.3146 36.815C45.8271 38.5507 44.6961 39.6693 42.9411 40.1514C42.0246 40.4021 40.3476 40.5757 37.7736 40.6914C35.2386 40.8264 32.9181 40.8843 30.7731 40.8843L27.6726 41C19.5021 41 14.4126 40.6914 12.4041 40.1514C10.6491 39.6693 9.51811 38.5507 9.03061 36.815C8.77711 35.9086 8.60161 34.6936 8.48461 33.1507C8.34811 31.6079 8.28961 30.2771 8.28961 29.12L8.17261 27.5C8.17261 23.2764 8.48461 20.1714 9.03061 18.185C9.51811 16.4493 10.6491 15.3307 12.4041 14.8486C13.3206 14.5979 14.9976 14.4243 17.5716 14.3086C20.1066 14.1736 22.4271 14.1157 24.5721 14.1157L27.6726 14C35.8431 14 40.9326 14.3086 42.9411 14.8486C44.6961 15.3307 45.8271 16.4493 46.3146 18.185Z" fill="#9A9A9A"/>
</svg>
